<svg
  xmlns="http://www.w3.org/2000/svg"
  width="31"
  height="31"
  viewBox="0 0 31 31"
  fill="none"
>
  <path
    d="M18.9375 29.2168H13.3125V20.1543H12.125C11.4 20.1543 10.8125 19.5668 10.8125 18.8418V16.4668C10.8125 15.7418 11.4 15.1543 12.125 15.1543H13.3125V12.0293C13.3125 9.4418 15.4125 7.3418 18 7.3418H21.375C22.1 7.3418 22.6875 7.92928 22.6875 8.65428V11.6543C22.6875 12.3793 22.1 12.9668 21.375 12.9668H18.9375V15.1543H21.2875C21.6875 15.1543 22.05 15.3293 22.3 15.6293C22.55 15.9293 22.65 16.3293 22.575 16.7168L22.1 19.0918C21.975 19.7043 21.4375 20.1418 20.8125 20.1418H18.9375V29.2168ZM15.1875 27.3418H17.0625V18.2793H20.3625L20.6125 17.0293H17.075V12.4043C17.075 11.6793 17.6625 11.0918 18.3875 11.0918H20.825V9.2168H18C16.45 9.2168 15.1875 10.4793 15.1875 12.0293V17.0293H12.6875V18.2793H15.1875V27.3418Z"
    fill="black"
  />
  <path
    d="M19.25 29.2168H11.75C4.9625 29.2168 2.0625 26.3168 2.0625 19.5293V12.0293C2.0625 5.2418 4.9625 2.3418 11.75 2.3418H19.25C26.0375 2.3418 28.9375 5.2418 28.9375 12.0293V19.5293C28.9375 26.3168 26.0375 29.2168 19.25 29.2168ZM11.75 4.2168C5.9875 4.2168 3.9375 6.2668 3.9375 12.0293V19.5293C3.9375 25.2918 5.9875 27.3418 11.75 27.3418H19.25C25.0125 27.3418 27.0625 25.2918 27.0625 19.5293V12.0293C27.0625 6.2668 25.0125 4.2168 19.25 4.2168H11.75Z"
    fill="black"
  />
</svg>
