<svg
  xmlns="http://www.w3.org/2000/svg"
  width="27"
  height="26"
  viewBox="0 0 27 26"
  fill="none"
>
  <path
    d="M24.8753 13.2533C24.8753 12.318 24.7978 11.6355 24.6302 10.9277H13.7324V15.1491H20.1292C20.0003 16.1981 19.3038 17.778 17.7562 18.8396L17.7345 18.9809L21.1802 21.5969L21.4189 21.6202C23.6113 19.6359 24.8753 16.7163 24.8753 13.2533Z"
    fill="#4285F4"
  />
  <path
    d="M13.7323 24.3754C16.8662 24.3754 19.4971 23.3642 21.4188 21.6201L17.7561 18.8394C16.7759 19.5093 15.4604 19.9769 13.7323 19.9769C10.6629 19.9769 8.05778 17.9927 7.12912 15.25L6.993 15.2613L3.41014 17.9787L3.36328 18.1064C5.27198 21.8222 9.19261 24.3754 13.7323 24.3754Z"
    fill="#34A853"
  />
  <path
    d="M7.13087 15.2491C6.88583 14.5413 6.74402 13.783 6.74402 12.9994C6.74402 12.2157 6.88583 11.4574 7.11797 10.7496L7.11148 10.5989L3.48371 7.83789L3.36502 7.89322C2.57835 9.43518 2.12695 11.1667 2.12695 12.9994C2.12695 14.832 2.57835 16.5635 3.36502 18.1055L7.13087 15.2491Z"
    fill="#FBBC05"
  />
  <path
    d="M13.7324 6.0233C15.9119 6.0233 17.3821 6.94594 18.2204 7.71696L21.4962 4.5825C19.4844 2.74987 16.8663 1.625 13.7324 1.625C9.19265 1.625 5.27199 4.17804 3.36328 7.89384L7.11625 10.7503C8.0578 8.00763 10.6629 6.0233 13.7324 6.0233Z"
    fill="#EB4335"
  />
</svg>
