<svg width="52" height="50" viewBox="0 0 52 50" fill="none" xmlns="http://www.w3.org/2000/svg">
  <g id="Instagram">
    <g id="Shape Clipped">
      <mask id="mask0_2017_11234" style="mask-type:luminance" maskUnits="userSpaceOnUse" x="0" y="0" width="52" height="50">
        <path id="path-1" fill-rule="evenodd" clip-rule="evenodd" d="M0.5 24.7785C0.5 11.0937 11.9167 0 26 0C40.0833 0 51.5 11.0937 51.5 24.7785C51.5 38.4634 40.0833 49.5571 26 49.5571C11.9167 49.5571 0.5 38.4634 0.5 24.7785Z" fill="white"/>
      </mask>
      <g mask="url(#mask0_2017_11234)">
        <path id="Shape" fill-rule="evenodd" clip-rule="evenodd" d="M26.0017 11.5625C22.3081 11.5625 21.8446 11.5782 20.3939 11.6423C18.946 11.7068 17.9577 11.9295 17.093 12.2563C16.1985 12.5938 15.4397 13.0454 14.6838 13.7802C13.9273 14.5148 13.4626 15.2521 13.1141 16.121C12.7769 16.9615 12.5474 17.9221 12.4823 19.3285C12.4174 20.7381 12.4004 21.1888 12.4004 24.7779C12.4004 28.3669 12.4168 28.816 12.4826 30.2256C12.5491 31.6325 12.7784 32.5928 13.1144 33.4331C13.4621 34.3023 13.9267 35.0396 14.6829 35.7741C15.4386 36.5092 16.1974 36.9619 17.0913 37.2994C17.9566 37.6262 18.9452 37.849 20.3927 37.9134C21.8434 37.9775 22.3067 37.9932 26 37.9932C29.6938 37.9932 30.1559 37.9775 31.6066 37.9134C33.0545 37.849 34.0439 37.6262 34.9092 37.2994C35.8034 36.9619 36.561 36.5092 37.3167 35.7741C38.0732 35.0396 38.5379 34.3023 38.8864 33.4334C39.2207 32.5928 39.4502 31.6322 39.5182 30.2259C39.5834 28.8163 39.6004 28.3669 39.6004 24.7779C39.6004 21.1888 39.5834 20.7384 39.5182 19.3287C39.4502 17.9218 39.2207 16.9615 38.8864 16.1212C38.5379 15.2521 38.0732 14.5148 37.3167 13.7802C36.5602 13.0451 35.8037 12.5936 34.9083 12.2563C34.0413 11.9295 33.0525 11.7068 31.6046 11.6423C30.154 11.5782 29.6921 11.5625 25.9974 11.5625H26.0017ZM24.7816 13.944C25.0185 13.9437 25.2734 13.9438 25.5484 13.9439L26.0017 13.944C29.6329 13.944 30.0633 13.9567 31.4973 14.02C32.8233 14.0789 33.5429 14.2942 34.0224 14.4751C34.657 14.7146 35.1095 15.001 35.5852 15.4635C36.0612 15.926 36.3559 16.3666 36.603 16.9833C36.7891 17.4486 37.011 18.1479 37.0713 19.4364C37.1365 20.8295 37.1507 21.248 37.1507 24.7748C37.1507 28.3017 37.1365 28.7202 37.0713 30.1133C37.0107 31.4018 36.7891 32.1011 36.603 32.5664C36.3565 33.1831 36.0612 33.6222 35.5852 34.0845C35.1092 34.547 34.6573 34.8334 34.0224 35.0729C33.5435 35.2546 32.8233 35.4694 31.4973 35.5283C30.0636 35.5916 29.6329 35.6054 26.0017 35.6054C22.3701 35.6054 21.9398 35.5916 20.5061 35.5283C19.1801 35.4688 18.4604 35.2535 17.9807 35.0726C17.346 34.8331 16.8927 34.5468 16.4167 34.0842C15.9407 33.6217 15.646 33.1823 15.3989 32.5653C15.2128 32.1 14.9909 31.4007 14.9306 30.1122C14.8654 28.7191 14.8524 28.3006 14.8524 24.7715C14.8524 21.2425 14.8654 20.8262 14.9306 19.4331C14.9912 18.1446 15.2128 17.4453 15.3989 16.9794C15.6454 16.3627 15.9407 15.9222 16.4167 15.4597C16.8927 14.9971 17.346 14.7108 17.9807 14.4707C18.4601 14.289 19.1801 14.0742 20.5061 14.0151C21.7607 13.96 22.2469 13.9435 24.7816 13.9407V13.944ZM31.6293 17.7236C31.6293 16.8478 32.3603 16.1383 33.2613 16.1383V16.1378C34.1623 16.1378 34.8933 16.8481 34.8933 17.7236C34.8933 18.5991 34.1623 19.3095 33.2613 19.3095C32.3603 19.3095 31.6293 18.5991 31.6293 17.7236ZM26.0014 17.9912C22.1445 17.9914 19.0174 21.03 19.0174 24.7779C19.0174 28.5258 22.1446 31.5631 26.0017 31.5631C29.8587 31.5631 32.9848 28.5258 32.9848 24.7779C32.9848 21.0299 29.8584 17.9912 26.0014 17.9912ZM30.535 24.7779C30.535 22.3449 28.5052 20.3727 26.0017 20.3727C23.4978 20.3727 21.4683 22.3449 21.4683 24.7779C21.4683 27.2106 23.4978 29.183 26.0017 29.183C28.5052 29.183 30.535 27.2106 30.535 24.7779Z" fill="black"/>
      </g>
    </g>
  </g>
</svg>
