<svg width="61" height="60" viewBox="0 0 61 60" fill="none" xmlns="http://www.w3.org/2000/svg">
  <g id="Icon">
    <path id="Circle 2" opacity="0.21" fill-rule="evenodd" clip-rule="evenodd"
          d="M0.333496 30V37C0.333496 49.7025 10.6309 60 23.3335 60H30.3335H37.3335C50.036 60 60.3335 49.7025 60.3335 37V30V23C60.3335 10.2975 50.036 0 37.3335 0H30.3335H23.3335C10.6309 0 0.333496 10.2975 0.333496 23V30Z"
          fill="#4AD991" />
    <g id="icon">
      <path id="Path 95"
            d="M19.4446 40.8889H42.7779C43.6371 40.8889 44.3335 41.5853 44.3335 42.4444C44.3335 43.3036 43.6371 44 42.7779 44H17.8891C17.0299 44 16.3335 43.3036 16.3335 42.4444V17.5556C16.3335 16.6964 17.0299 16 17.8891 16C18.7482 16 19.4446 16.6964 19.4446 17.5556V40.8889Z"
            fill="#4AD991" />
      <path id="Path 97" opacity="0.5"
            d="M25.2461 34.176C24.6585 34.8027 23.6741 34.8345 23.0473 34.2469C22.4206 33.6593 22.3888 32.6749 22.9764 32.0481L28.8097 25.8259C29.378 25.2198 30.3223 25.1672 30.9543 25.7065L35.5583 29.6353L41.557 22.037C42.0893 21.3627 43.0675 21.2477 43.7418 21.78C44.4161 22.3123 44.5312 23.2905 43.9988 23.9648L36.9988 32.8315C36.4521 33.524 35.4394 33.6237 34.7682 33.0509L30.0641 29.0367L25.2461 34.176Z"
            fill="#4AD991" />
    </g>
  </g>
</svg>
