<svg width="61" height="60" viewBox="0 0 61 60" fill="none" xmlns="http://www.w3.org/2000/svg">
  <g id="Icon">
    <path id="Circle 2" opacity="0.3" fill-rule="evenodd" clip-rule="evenodd"
          d="M0.666504 30V37C0.666504 49.7025 10.964 60 23.6665 60H30.6665H37.6665C50.3691 60 60.6665 49.7025 60.6665 37V30V23C60.6665 10.2975 50.3691 0 37.6665 0H30.6665H23.6665C10.964 0 0.666504 10.2975 0.666504 23V30Z"
          fill="#FF9066" />
    <g id="icon">
      <path id="Path 107" opacity="0.78" fill-rule="evenodd" clip-rule="evenodd"
            d="M29.2974 23.8074C29.3175 23.5469 29.5347 23.3457 29.796 23.3457H30.2138C30.4707 23.3457 30.6857 23.5404 30.7113 23.796L31.3329 30.0124L35.7477 32.5351C35.9035 32.6241 35.9996 32.7898 35.9996 32.9692V33.3577C35.9996 33.6874 35.6861 33.9269 35.368 33.8401L29.0649 32.1211C28.8336 32.058 28.6796 31.8395 28.698 31.6004L29.2974 23.8074Z"
            fill="#FF9066" />
      <path id="Combined Shape" opacity="0.901274" fill-rule="evenodd" clip-rule="evenodd"
            d="M23.3883 14.9836C23.1242 14.6689 22.6142 14.7893 22.5189 15.189L20.8854 22.0371C20.8077 22.3628 21.0658 22.6713 21.4001 22.6523L28.4448 22.2531C28.8557 22.2298 29.0641 21.7478 28.7995 21.4325L26.9981 19.2857C28.163 18.8876 29.3982 18.6797 30.6665 18.6797C36.9257 18.6797 41.9998 23.7538 41.9998 30.0131C41.9998 36.2723 36.9257 41.3464 30.6665 41.3464C24.4073 41.3464 19.3332 36.2723 19.3332 30.0131C19.3332 28.9623 19.4755 27.9332 19.7529 26.944L17.1853 26.2238C16.8473 27.429 16.6665 28.6999 16.6665 30.0131C16.6665 37.7451 22.9345 44.0131 30.6665 44.0131C38.3985 44.0131 44.6665 37.7451 44.6665 30.0131C44.6665 22.2811 38.3985 16.0131 30.6665 16.0131C28.7216 16.0131 26.8694 16.4096 25.1862 17.1263L23.3883 14.9836Z"
            fill="#FF9066" />
    </g>
  </g>
</svg>
